#!OML:ASF F:\VICON\USERDATA\INSTALL\rory3\rory3.ASF
:FULLY-SPECIFIED
:DEGREES
1292
root -0.426509 18.3508 3.36626 -0.855546 -9.16905 1.12488
lowerback 6.60643 1.17408 -1.61549
upperback 1.21423 1.43245 -0.524328
thorax -2.47659 0.723006 0.243126
lowerneck -15.8323 -1.13853 -6.12764
upperneck 7.93747 -1.05173 6.91652
head 5.02816 -0.226185 3.07715
rclavicle 1.24365e-014 -5.96354e-016
rhumerus -3.18661 -26.7889 -22.4771
rradius 18.3555
rwrist 16.2294
rhand -23.4587 5.79878
rfingers 7.12502
rthumb 3.00016 -24.1599
lclavicle 1.24365e-014 -5.96354e-016
lhumerus -13.4331 13.3115 20.7691
lradius 22.1441
lwrist -3.69609
lhand -31.5911 20.7368
lfingers 7.12502
lthumb -4.8539 50.6612
rfemur -6.10383 28.0496 6.04947
rtibia 19.1918
rfoot -15.6109 -11.1141
rtoes -11.3695
lfemur 3.62654 -12.4165 -10.6681
ltibia 15.2565
lfoot -23.0734 30.8159
ltoes -1.74173
1293
root -0.425714 18.3516 3.37502 -0.813772 -9.16684 1.23236
lowerback 6.66424 1.17855 -1.70857
upperback 1.23616 1.42867 -0.597655
thorax -2.48654 0.721492 0.219212
lowerneck -15.7724 -1.18443 -6.29849
upperneck 7.81498 -1.10925 7.2039
head 4.98757 -0.241214 3.19021
rclavicle 1.38528e-015 6.26172e-015
rhumerus -4.1201 -27.5772 -21.7674
rradius 18.1815
rwrist 16.696
rhand -23.4092 5.98451
rfingers 7.12502
rthumb 3.04791 -23.9735
lclavicle 1.38528e-015 6.26172e-015
lhumerus -14.2786 13.4729 20.2065
lradius 21.9618
lwrist -3.90224
lhand -31.5221 20.8628
lfingers 7.12502
lthumb -4.78724 50.7887
rfemur -6.16399 28.047 5.89395
rtibia 19.2059
rfoot -15.6844 -11.0915
rtoes -11.0888
lfemur 3.67102 -12.5814 -10.8278
ltibia 15.1334
lfoot -23.1428 31.0025
ltoes -1.74848
1294
root -0.424985 18.3543 3.38269 -0.745575 -9.17227 1.22678
lowerback 6.75218 1.18831 -1.71352
upperback 1.20424 1.4386 -0.602782
thorax -2.56867 0.727033 0.213471
lowerneck -15.5075 -1.23898 -6.48603
upperneck 7.58882 -1.17043 7.40031
head 4.88137 -0.269065 3.27499
rclavicle -2.19409e-014 7.95139e-016
rhumerus -5.03137 -28.5748 -20.9847
rradius 17.9825
rwrist 17.4656
rhand -23.2394 6.1873
rfingers 7.12502
rthumb 3.21194 -23.7683
lclavicle -2.19409e-014 7.95139e-016
lhumerus -15.2657 13.2558 19.6749
lradius 21.9258
lwrist -3.86587
lhand -31.7232 21.5656
lfingers 7.12502
lthumb -4.98148 51.487
rfemur -6.25382 28.0995 5.87388
rtibia 19.2425
rfoot -15.7176 -11.17
rtoes -11.1178
lfemur 3.7096 -12.6575 -10.8403
ltibia 14.9878
lfoot -23.0803 31.1012
ltoes -1.81073
1295
root -0.42584 18.3572 3.39314 -0.669878 -9.16649 1.18641
lowerback 6.79363 1.19545 -1.71217
upperback 1.19141 1.44752 -0.585544
thorax -2.60559 0.731766 0.228574
lowerneck -15.3252 -1.27953 -6.54788
upperneck 7.3523 -1.21225 7.40756
head 4.78189 -0.295004 3.28108
rclavicle -3.98812e-015 -1.98785e-016
rhumerus -5.96116 -29.298 -20.1439
rradius 17.8654
rwrist 17.8592
rhand -23.2298 5.74898
rfingers 7.12502
rthumb 3.22115 -24.2064
lclavicle -3.98812e-015 -1.98785e-016
lhumerus -16.1658 13.4532 19.0893
lradius 21.7736
lwrist -4.11025
lhand -31.8369 22.0852
lfingers 7.12502
lthumb -5.09129 52.0041
rfemur -6.30648 28.1248 5.91075
rtibia 19.268
rfoot -15.6898 -11.2734
rtoes -11.3778
lfemur 3.74269 -12.7985 -10.8205
ltibia 14.8649
lfoot -23.2316 31.1783
ltoes -1.71594
1296
root -0.428062 18.3588 3.4048 -0.538307 -9.1264 1.25408
lowerback 6.7644 1.18244 -1.81352
upperback 1.17813 1.42251 -0.617352
thorax -2.6042 0.720115 0.255325
lowerneck -15.2301 -1.29478 -6.713
upperneck 7.17748 -1.21583 7.58084
head 4.71515 -0.292509 3.36101
rclavicle -2.23633e-016 -1.55052e-014
rhumerus -6.89971 -29.869 -19.3129
rradius 17.8083
rwrist 18.0835
rhand -23.3466 5.23917
rfingers 7.12502
rthumb 3.10835 -24.7179
lclavicle -2.23633e-016 -1.55052e-014
lhumerus -16.9899 13.74 18.4217
lradius 21.5065
lwrist -4.53229
lhand -31.6747 22.0445
lfingers 7.12502
lthumb -4.93464 51.967
rfemur -6.40287 28.1059 5.79131
rtibia 19.269
rfoot -15.7279 -11.3256
rtoes -11.4193
lfemur 3.66571 -13.0413 -10.9161
ltibia 14.7982
lfoot -23.4646 31.3248
ltoes -1.43313
1297
root -0.430172 18.3599 3.41544 -0.369769 -9.05802 1.2789
lowerback 6.67259 1.11941 -1.86555
upperback 1.13085 1.33561 -0.653834
thorax -2.60043 0.677467 0.256001
lowerneck -14.9811 -1.29652 -6.7692
upperneck 7.00424 -1.22189 7.66128
head 4.62282 -0.297147 3.39285
rclavicle -2.21893e-014 -9.54166e-015
rhumerus -7.81583 -30.0416 -18.5816
rradius 17.8638
rwrist 18.0019
rhand -23.51 4.88516
rfingers 7.12502
rthumb 2.95061 -25.0742
lclavicle -2.21893e-014 -9.54166e-015
lhumerus -18.0408 13.3221 17.6795
lradius 21.4507
lwrist -4.2351
lhand -31.621 21.7446
lfingers 7.12502
lthumb -4.88275 51.6683
rfemur -6.52127 28.0843 5.70206
rtibia 19.2399
rfoot -15.7503 -11.4504
rtoes -11.5863
lfemur 3.50061 -13.1563 -10.9254
ltibia 14.7917
lfoot -23.4844 31.414
ltoes -1.51684
1298
root -0.432656 18.3616 3.42539 -0.200661 -9.02249 1.16108
lowerback 6.55681 1.05869 -1.77797
upperback 1.08948 1.26388 -0.639392
thorax -2.57556 0.64122 0.229896
lowerneck -14.7583 -1.34238 -6.88297
upperneck 6.95234 -1.28271 7.76427
head 4.57695 -0.328109 3.43789
rclavicle 1.16786e-015 1.0138e-014
rhumerus -8.68694 -29.7469 -17.8654
rradius 17.9537
rwrist 17.4043
rhand -23.9858 4.20834
rfingers 7.12502
rthumb 2.4911 -25.7569
lclavicle 1.16786e-015 1.0138e-014
lhumerus -19.1379 12.8843 16.9486
lradius 21.4198
lwrist -3.98417
lhand -31.6472 21.2127
lfingers 7.12502
lthumb -4.90803 51.1359
rfemur -6.62534 28.1126 5.77746
rtibia 19.1963
rfoot -15.7895 -11.5241
rtoes -11.4397
lfemur 3.35325 -13.2621 -10.7767
ltibia 14.8156
lfoot -23.5983 31.4635
ltoes -1.28703
1299
root -0.43642 18.3631 3.43412 -0.0492378 -9.01776 0.978048
lowerback 6.47338 1.02547 -1.65436
upperback 1.08425 1.23155 -0.594458
thorax -2.53221 0.624075 0.211201
lowerneck -14.6564 -1.39871 -7.0051
upperneck 6.91127 -1.35015 7.87149
head 4.55472 -0.360006 3.48569
rclavicle 8.3738e-015 3.97569e-015
rhumerus -9.44801 -30.02 -17.1169
rradius 17.8804
rwrist 17.2607
rhand -24.4443 3.62352
rfingers 7.12502
rthumb 2.04825 -26.3464
lclavicle 8.3738e-015 3.97569e-015
lhumerus -19.9542 13.0233 16.1837
lradius 21.076
lwrist -4.42521
lhand -31.703 20.7337
lfingers 7.12502
lthumb -4.962 50.6556
rfemur -6.70913 28.1858 5.9392
rtibia 19.1287
rfoot -15.7937 -11.5829
rtoes -11.0479
lfemur 3.21141 -13.2739 -10.5412
ltibia 14.8873
lfoot -23.6834 31.4313
ltoes -1.32065
1300
root -0.440324 18.3647 3.44359 0.11699 -8.96685 0.86503
lowerback 6.38593 0.975699 -1.58386
upperback 1.04523 1.17213 -0.580119
thorax -2.52151 0.594142 0.192687
lowerneck -14.4327 -1.42901 -7.00035
upperneck 6.79234 -1.39496 7.8297
head 4.48481 -0.38926 3.46638
rclavicle -1.51822e-014 8.84592e-015
rhumerus -10.1471 -30.9363 -16.3309
rradius 17.7114
rwrist 17.7975
rhand -24.4582 3.42681
rfingers 7.12502
rthumb 2.03482 -26.5432
lclavicle -1.51822e-014 8.84592e-015
lhumerus -20.7347 13.1313 15.4145
lradius 20.7872
lwrist -4.64867
lhand -31.9836 20.6004
lfingers 7.12502
lthumb -5.23293 50.5158
rfemur -6.79141 28.2682 6.02524
rtibia 19.0581
rfoot -15.8133 -11.7805
rtoes -11.0719
lfemur 3.02745 -13.2508 -10.3675
ltibia 14.9604
lfoot -23.6412 31.4124
ltoes -1.60147
1301
root -0.443812 18.3661 3.4526 0.225572 -8.85302 0.752753
lowerback 6.36434 0.881311 -1.5315
upperback 1.02079 1.05119 -0.549421
thorax -2.53239 0.533793 0.205329
lowerneck -14.1316 -1.45353 -7.10744
upperneck 6.61546 -1.42184 7.87397
head 4.3848 -0.409137 3.49361
rclavicle 2.82523e-014 3.97569e-016
rhumerus -10.6902 -31.7456 -15.6049
rradius 17.5582
rwrist 18.4286
rhand -24.2761 3.41471
rfingers 7.12502
rthumb 2.21073 -26.5536
lclavicle 2.82523e-014 3.97569e-016
lhumerus -21.6069 13.0221 14.6162
lradius 20.5987
lwrist -4.60139
lhand -32.057 20.4326
lfingers 7.12502
lthumb -5.30377 50.3462
rfemur -6.76837 28.2595 6.16011
rtibia 18.9908
rfoot -15.8131 -11.9193
rtoes -11.2214
lfemur 2.90439 -13.3927 -10.2234
ltibia 15.0157
lfoot -23.697 31.4605
ltoes -1.75558
1302
root -0.447972 18.3667 3.46443 0.256124 -8.79774 0.648011
lowerback 6.32108 0.806116 -1.51813
upperback 1.0712 0.954985 -0.497368
thorax -2.45546 0.485328 0.260693
lowerneck -13.8996 -1.50243 -7.25615
upperneck 6.44126 -1.47076 7.92298
head 4.29902 -0.439292 3.52776
rclavicle 6.63444e-015 1.17283e-014
rhumerus -11.1273 -31.9633 -14.9488
rradius 17.4973
rwrist 18.5027
rhand -23.97 2.96845
rfingers 7.12502
rthumb 2.50629 -26.9966
lclavicle 6.63444e-015 1.17283e-014
lhumerus -22.4538 13.3462 13.709
lradius 20.3581
lwrist -5.2958
lhand -31.8057 20.3789
lfingers 7.12502
lthumb -5.06113 50.2984
rfemur -6.66961 28.2996 6.32068
rtibia 18.9326
rfoot -15.8167 -11.953
rtoes -11.1638
lfemur 2.91533 -13.6097 -10.1314
ltibia 15.0459
lfoot -23.9864 31.5133
ltoes -1.514
1303
root -0.449772 18.3642 3.47639 0.281489 -8.77323 0.545959
lowerback 6.26908 0.743105 -1.48429
upperback 1.09988 0.876613 -0.430701
thorax -2.39615 0.445808 0.317824
lowerneck -13.6506 -1.58249 -7.40921
upperneck 6.42386 -1.56433 7.91333
head 4.26155 -0.494899 3.54192
rclavicle 1.37286e-014 1.6201e-014
rhumerus -11.5684 -31.9155 -14.2833
rradius 17.5476
rwrist 18.3421
rhand -23.8075 2.36451
rfingers 7.12502
rthumb 2.66323 -27.5986
lclavicle 1.37286e-014 1.6201e-014
lhumerus -23.3537 13.7145 12.7636
lradius 20.1656
lwrist -6.02148
lhand -31.707 20.1664
lfingers 7.12502
lthumb -4.96584 50.0883
rfemur -6.58888 28.293 6.45247
rtibia 18.8598
rfoot -15.8371 -11.9136
rtoes -10.8218
lfemur 2.93452 -13.8489 -10.0701
ltibia 15.0981
lfoot -24.275 31.6295
ltoes -1.31407
1304
root -0.451373 18.3629 3.48713 0.299416 -8.75145 0.476576
lowerback 6.25035 0.678721 -1.48259
upperback 1.08229 0.792739 -0.37577
thorax -2.40313 0.404331 0.380421
lowerneck -13.3037 -1.67295 -7.6011
upperneck 6.53838 -1.6809 7.92569
head 4.25105 -0.563268 3.5686
rclavicle -4.8578e-014 -5.1684e-015
rhumerus -11.9576 -32.0568 -13.5946
rradius 17.5551
rwrist 18.3515
rhand -23.6332 2.19938
rfingers 7.12502
rthumb 2.83161 -27.7616
lclavicle -4.8578e-014 -5.1684e-015
lhumerus -24.2541 13.7797 11.8641
lradius 20.0206
lwrist -6.11944
lhand -31.9878 20.3015
lfingers 7.12502
lthumb -5.23693 50.2167
rfemur -6.50756 28.3255 6.54888
rtibia 18.7888
rfoot -15.8578 -11.9803
rtoes -10.6613
lfemur 2.9398 -13.9144 -10.0102
ltibia 15.1588
lfoot -24.4398 31.5881
ltoes -1.1434
